<?xml version="1.0" encoding="utf-8"?>
<!-- Generator: Adobe Illustrator 23.1.0, SVG Export Plug-In . SVG Version: 6.00 Build 0)  -->
<svg version="1.1" id="Слой_1" xmlns="http://www.w3.org/2000/svg" xmlns:xlink="http://www.w3.org/1999/xlink" x="0px" y="0px"
	 viewBox="0 0 20 20" style="enable-background:new 0 0 20 20;" xml:space="preserve">
<style type="text/css">
	.st0{fill:#FFFFFF;}
	.st1{fill:#D4AF93;}
</style>
<g id="Ico_56_">
	<circle id="Frame_84_" class="st0" cx="10" cy="10" r="10"/>
	<g id="Eye_2_">
		<path class="st1" d="M16.41,9.74c-0.05-0.06-0.23-0.29-0.55-0.6c-0.4-0.4-0.84-0.76-1.31-1.08c-0.65-0.44-1.33-0.8-2.03-1.05
			c-0.87-0.31-1.78-0.47-2.69-0.47c-0.88,0-1.75,0.16-2.58,0.47c-0.67,0.25-1.32,0.6-1.92,1.04c-1.04,0.76-1.64,1.55-1.75,1.7
			c-0.1,0.14-0.1,0.34,0,0.48c0.11,0.15,0.71,0.94,1.75,1.7c0.61,0.44,1.25,0.79,1.92,1.04c0.83,0.31,1.7,0.47,2.58,0.47
			c0.91,0,1.82-0.16,2.69-0.47c0.7-0.25,1.39-0.6,2.03-1.05c0.47-0.32,0.91-0.69,1.31-1.08c0.31-0.31,0.5-0.53,0.55-0.6
			C16.53,10.11,16.53,9.89,16.41,9.74z M6.89,11.31c0.13,0.31,0.31,0.6,0.52,0.86c-0.55-0.22-1.09-0.52-1.6-0.89
			c-0.36-0.26-0.66-0.53-0.91-0.77c-0.28-0.28-0.28-0.74,0-1.02c0.24-0.24,0.54-0.51,0.91-0.77c0.51-0.37,1.05-0.67,1.6-0.89
			C7.2,8.09,7.02,8.37,6.89,8.69C6.72,9.1,6.63,9.54,6.63,10C6.63,10.46,6.72,10.9,6.89,11.31z M10,12.55
			c-1.4,0-2.55-1.14-2.55-2.55c0-1.4,1.14-2.55,2.55-2.55S12.55,8.6,12.55,10C12.55,11.4,11.4,12.55,10,12.55z M15,10.53
			c-0.25,0.22-0.56,0.48-0.92,0.73c-0.45,0.31-0.92,0.57-1.39,0.77c0.17-0.22,0.3-0.46,0.41-0.72c0.18-0.42,0.27-0.86,0.27-1.31
			c0-0.46-0.09-0.9-0.27-1.31C13,8.43,12.86,8.19,12.7,7.97c0.47,0.21,0.94,0.46,1.39,0.77c0.36,0.25,0.67,0.5,0.92,0.73
			C15.32,9.75,15.32,10.25,15,10.53z"/>
		<circle class="st1" cx="10" cy="10" r="1.27"/>
	</g>
</g>
</svg>
